<?xml version="1.0" encoding="UTF-8"?>
<!DOCTYPE svg PUBLIC "-//W3C//DTD SVG 1.1//EN" "http://www.w3.org/Graphics/SVG/1.1/DTD/svg11.dtd">
<!-- Creator: CorelDRAW 2018 (64-Bit) -->
<svg xmlns="http://www.w3.org/2000/svg" xml:space="preserve" width="50mm" height="50mm" version="1.1" shape-rendering="geometricPrecision" text-rendering="geometricPrecision" image-rendering="optimizeQuality" fill-rule="evenodd" clip-rule="evenodd"
viewBox="0 0 4938.45 4938.45"
 xmlns:xlink="http://www.w3.org/1999/xlink">
 <g id="Слой_x0020_1">
  <metadata id="CorelCorpID_0Corel-Layer"/>
  <path fill="black" d="M2469.22 0c1363.71,0 2469.22,1105.51 2469.22,2469.22 0,1363.71 -1105.51,2469.22 -2469.22,2469.22 -1363.71,0 -2469.22,-1105.51 -2469.22,-2469.22 0,-1363.71 1105.51,-2469.22 2469.22,-2469.22zm-901.68 4043.82c-30.25,11.63 -60.28,9.64 -88.54,-9.05 -24.22,-16.02 -41.25,-37.69 -50.3,-65.3 -7.83,-23.9 -8.24,-48.12 -2.84,-72.1 -21.65,10.49 -44.75,18.15 -68.74,20.64 -31.28,3.24 -61.23,-3.05 -84.59,-24.94 -20.68,-19.38 -31.19,-43.55 -32.01,-71.84 -0.73,-25.09 5.95,-52.28 14.78,-77.25 -16.18,17.69 -31.79,35.91 -46.86,54.77 -5.08,5.97 -12.1,8.48 -19.84,7.37 -7.79,-1.13 -14.56,-5.31 -20.22,-10.62 -6.29,-5.9 -11.02,-12.92 -13.85,-21.07 -1.62,-4.66 -2.4,-9.5 -1.93,-14.24l-5.77 1.42 11.33 -14.84c49.29,-64.59 109.75,-120.1 175.06,-167.92 5.95,-4.79 13.14,-5.85 20.53,-4.43 7.75,1.48 14.46,5.43 20.18,10.79 6.4,6 11.46,13.18 13.84,21.69 2.39,8.58 1.24,16.95 -2.82,24.84 -2.51,4.87 -7.05,8.83 -11.6,12.01 -1.52,1.03 -3.05,2.03 -4.59,3.03 29.11,1.09 58.63,7.58 81.97,25.26 6.64,5.03 11.17,11.72 13.64,19.66 2.43,7.81 2.29,15.7 -1.49,23.04 -3.74,7.29 -10.09,11.33 -18.29,11.61 -8.17,0.27 -15.96,-3.11 -22.86,-7.67 -10.26,-7.32 -23.01,-10.5 -35.4,-11.66 -15.18,-1.43 -30.47,-0.07 -45.34,3.13 -5.91,9.8 -11.53,19.77 -16.76,29.94 -11.27,21.89 -22.53,48.15 -25.27,72.83 -1.6,14.47 -0.37,30.64 10.88,41.18 14,13.12 33.18,14.51 51.34,11.76 27.82,-4.22 55.86,-17.68 79.85,-31.92 4.8,-2.84 9.94,-3.91 14.9,-2.71 6.58,-8.87 14.03,-17.04 22.17,-24.5 21.42,-19.61 46.28,-33.61 74.98,-38.95 26.61,-4.96 51.88,-0.88 74.55,14.11 16.17,10.69 29.94,24.36 38.45,41.96 5.02,10.38 8.43,21.25 10.1,32.47 2.48,-2.97 5.03,-5.89 7.64,-8.63 5.11,-5.37 11.28,-9.33 18.39,-11.46 8.66,-2.59 17.07,0.03 24.4,4.88 8.23,5.44 13.81,13.08 16.9,22.43 2.92,8.89 3.48,18.08 0.65,27.06 -2.51,7.99 -7.09,15.04 -12.71,21.2 -7.16,7.83 -15.14,15.2 -23,22.18l-13.65 12.44c-12.19,11.96 -23.07,25.33 -32.98,39.23 -9.76,13.69 -18.02,28.67 -23.07,44.76 -3.19,10.16 -5.22,21.49 -3.47,32.12 1.21,7.35 4.23,13.85 10.57,18.04 11.34,7.51 31.83,0.5 42.98,-4.07 25.3,-10.38 48.55,-28.2 68.35,-46.81 6.11,-5.74 13.63,-6.98 21.31,-3.67l0.54 0.23 2.46 1.63c2.64,1.75 4.88,3.87 6.75,6.3 18.63,-34.95 39.7,-68.54 62.5,-100.76 4.13,-6.44 10.62,-9.66 18.1,-10.59 7.83,-0.97 15.45,0.75 22.55,4.07 7.97,3.73 15.05,8.99 20.03,16.34 5,7.38 6.63,15.67 5.32,24.47 -0.81,5.41 -3.83,10.59 -7.12,15.03 -1.15,1.48 -2.3,2.95 -3.47,4.42 28.07,-7.99 58.17,-10.86 85.95,-1.21 7.89,2.74 14.31,7.71 19.18,14.47 4.79,6.65 7.22,14.17 6.01,22.35 -1.2,8.11 -5.94,13.96 -13.66,16.75 -7.69,2.79 -16.16,1.94 -24.12,-0.27 -12.04,-3.81 -25.11,-2.96 -37.29,-0.25 -14.8,3.3 -28.76,9.25 -41.83,16.87 -2.43,11.12 -4.52,22.32 -6.2,33.57 -3.62,24.4 -5.79,52.8 -0.42,77.08 3.18,14.37 9.57,29.34 23.66,35.93 17.42,8.16 35.9,3.73 52.41,-4.55 24.94,-12.53 47.14,-33.97 65.26,-54.87 6.24,-7.2 14.73,-9.23 23.41,-5.17 5.22,2.45 9.27,6.38 12.28,11.29 3.1,5.07 4.47,10.71 3.6,16.59 -0.54,3.65 -2.11,6.88 -4.35,9.66 -23.36,30.07 -52.21,57.74 -87.38,73.37 -28.89,12.84 -59.03,15.87 -88.12,2.26 -25.78,-12.06 -43.51,-31.8 -53.4,-58.46 -8.79,-23.67 -11.23,-51.66 -10.91,-78.24 -9.62,21.82 -18.53,43.96 -26.71,66.53 -2.91,7.33 -8.75,11.86 -16.49,13.19 -7.74,1.33 -15.55,-0.6 -22.56,-3.88 -7.84,-3.66 -14.55,-8.89 -19.84,-15.74 -3.03,-3.94 -5.35,-8.38 -6.42,-13.1l-4.88 3.02 5.85 -17.34c6.6,-19.57 14.09,-38.83 22.37,-57.74 -20.69,16.55 -43.67,30.7 -68.55,39.05 -28.62,9.6 -57.62,9.93 -83.39,-7.12 -14.26,-9.43 -25.06,-21.91 -32.39,-37.36 -6.01,-12.68 -9.11,-26.14 -9.68,-39.98zm2017.21 -547.42c-17.71,-28.94 51.05,-71.78 70.24,-42.27 51.63,79.37 77,160.1 130.68,238.15 15.49,22.52 -21.59,65.39 -61.3,12.19 -51.79,-69.39 -94.35,-134.09 -139.63,-208.07zm186.98 249.96c54.01,-53.41 111.21,41.76 36.5,58.6 -33.64,7.59 -62.47,-32.9 -36.5,-58.6zm-1340.55 318.64c1.74,-9.92 4.36,-20.45 8.45,-27.26 5.82,-9.69 15.67,-13.4 26.65,-13.39 9.85,0.01 18.7,3.22 26.37,9.38 7.26,5.82 12.58,13.17 14.88,22.24 2.41,9.49 1.87,19.28 -0.47,28.72 -3.71,15.02 -8.6,30.19 -13.42,45.24 -2.46,6.55 -3.82,16.44 -4.87,23.36 -2.35,15.65 -4.06,31.49 -5.65,47.22 -3.62,35.97 -6.07,72.07 -7.49,108.21 24.09,-11.89 44.09,-30.07 60.76,-51.21 21.75,-27.59 35.59,-59.26 43.08,-93.74 0.69,-2.74 1.85,-5.25 3.53,-7.43 0.1,-15.15 2.37,-30.13 6.8,-44.63 8.4,-27.57 23.39,-50.85 46.24,-68.48 23.03,-17.76 49.63,-25.54 78.65,-25.23 30.89,0.34 59.04,9.25 82.95,29 24.41,20.15 39.08,47.16 46.75,77.63 10.17,40.45 7.83,80.16 -9.61,117.36 19.06,-0.87 35.48,-8.54 49.82,-21.63 18.93,-17.27 30.41,-41.56 37.75,-65.6 0.07,-0.25 0.13,-0.48 0.2,-0.72 -1.41,-6.31 -2.53,-12.69 -3.4,-19.1l-0.03 -0.23 -0.01 -0.24c-0.57,-8.86 2.31,-17.03 10.83,-20.95 5.81,-2.69 12.03,-2.9 18.22,-1.56 5.98,1.3 11.54,3.89 15.55,8.64 2,2.36 3.02,5.17 3.52,8.49 1.81,17.84 8.15,33.85 19.83,47.53 6.04,7.09 13.37,13.5 22.24,16.73 7.24,2.64 14.16,2.51 21.17,-0.72 9.83,-4.53 12.97,-14.16 13.66,-24.36 1.15,-16.9 -1.44,-34.82 -5.03,-51.3 -6.03,-27.71 -14.04,-55.54 -22.04,-82.84l-10.73 -38.25c-3.02,-10.8 -5.43,-23.56 -3.54,-34.75 1.89,-11.08 9.02,-18.7 19.09,-23.28 18.41,-8.37 36.89,-8.21 50.59,8.04 13.66,16.17 17.07,42.17 17.89,62.56 0.71,17.72 4.74,34.97 11.14,51.47 6.02,15.56 14.04,30.52 24.82,43.31 6.07,7.19 13.58,14.25 22.25,18.16 6.04,2.73 12.01,3.28 18.1,0.46 16.75,-7.72 21.48,-24.54 22.01,-41.8 0.96,-31.08 -8.67,-69.7 -17.03,-99.53 -7.2,-17.8 -14.95,-36.8 -20.24,-55.24 -2.86,-9.97 -5.06,-22.12 -1.97,-32.28 3.06,-10.07 11.43,-16.6 20.64,-20.85 9.04,-4.17 18.56,-5.58 28.33,-3.58 9.15,1.88 17.12,6.08 23.17,13.25 7.01,8.31 10.75,18.39 12.47,29.02 2.21,13.61 3.34,27.68 4.15,41.45 2.68,15.66 7.39,30.98 13.37,45.69 5.72,14.06 13.11,27.81 22.92,39.45 7,8.29 15.68,16.23 25.87,20.33 7.14,2.87 14.47,3.61 21.58,0.34 14.93,-6.88 22.15,-22.76 25.99,-37.87 4.78,-18.88 4.62,-40.33 2.92,-59.73 -11.28,-16.35 -18.76,-34.51 -22.85,-53.98 -6.14,-29.24 -4.67,-58.11 5.37,-86.25 20.19,-56.54 83.46,-97.48 143.44,-80.64 -24.3,-64.32 64,-100.95 84.31,0.13 7.37,36.71 19.91,76.64 47.53,103.41 7.26,7.03 15.96,13.18 25.91,15.6 7.72,1.88 14.98,1.1 21.78,-3.14 52.57,-32.68 -19.24,-152.94 41.53,-154.12 44.54,-0.87 30.89,105.17 25.72,129.03 -6.81,31.39 -21.96,58.21 -49.59,75.39 -15.17,9.42 -31.65,15.01 -49.49,15.92 -14.28,0.73 -28.07,-1.57 -41.14,-6.82 -5.59,34.64 -23.58,61.89 -54.25,80.95 -25.51,15.86 -53.38,24.29 -83.49,21.97 -16.54,-1.27 -32.09,-5.71 -46.48,-13.39 -1.21,12.24 -3.44,24.36 -6.89,36.16 -8.35,28.49 -23.98,53.18 -51.6,65.92 -38.73,17.87 -73.07,10.06 -102.29,-16.2 -1.08,11.64 -3.81,23.07 -7.93,34.13 -6.91,18.59 -20.29,31.51 -38.2,39.76 -18.05,8.34 -37.06,11.52 -56.66,7.83 -13.26,-2.5 -25.28,-7.66 -36.03,-15.12 1.43,14.33 0.86,29.18 -3.97,42.39 -6.68,18.26 -21.68,30.29 -38.9,38.23 -18.27,8.42 -37.61,11.82 -57.41,7.51 -19.45,-4.25 -35.33,-14.83 -48.12,-29.99 -0.47,-0.56 -0.94,-1.13 -1.4,-1.7 -8.94,16.65 -20.25,31.78 -34.31,44.63 -23.56,21.5 -51.24,32.79 -83.2,32.45 -11.21,-0.12 -22.37,-1.89 -33.21,-4.76 -9.76,7.47 -20.91,12.93 -32.49,16.98 -14.31,5 -29.32,7.24 -44.47,7.07 -31.68,-0.34 -60.33,-9.78 -84.98,-29.75 -14.37,-11.64 -25.82,-25.55 -34.42,-41.55 -0.42,0.88 -0.84,1.77 -1.26,2.65 -12.51,26.13 -30.09,49.92 -49.58,71.25 -21.69,23.74 -47.75,41.88 -77.03,54.92 -2.93,39.63 -10.88,87.1 -33.62,120.03 -19.97,28.91 -48.44,42.38 -83.38,42.36 -21.34,-0.02 -41.48,-5.25 -59.05,-17.57 -16.85,-11.82 -27.96,-27.82 -33.03,-47.78 -5.59,-22.04 -2.53,-42.82 11.62,-60.83 13.03,-16.58 29.26,-29.49 48.17,-38.82 22.13,-10.91 45.34,-20.28 68.43,-28.98l0.32 -0.11c2.97,-0.95 7.72,-2.31 11.42,-3.73l0.91 -24.62c-15.41,9.14 -32.86,13.04 -51.32,13.02 -28.9,-0.02 -55.04,-8.45 -77.6,-26.61 -23.08,-18.57 -37.2,-43.37 -44.46,-71.95 -7.67,-30.22 -7.35,-60.39 1.15,-90.38 8,-28.25 21.99,-53.4 43.81,-73.25 20.38,-18.53 44.25,-28.75 71.87,-28.73 19.19,0.02 38.03,3.79 54.64,13.74 9.99,5.99 18.89,13.24 26.51,21.81zm-818.15 -136.15c2.2,-5.44 4.38,-11.02 6.13,-16.62 4.94,-15.72 8.01,-32.94 5.64,-49.41 -1.55,-10.83 -5.44,-21.82 -14.95,-28.11 -11.94,-7.89 -25.25,-7.46 -38.51,-3.17 -17.76,5.75 -32.84,17.24 -45.46,30.75 -14.27,15.29 -24.65,32.88 -30.92,52.82 -4.62,14.71 -7.46,31.12 -4.39,46.43 2.39,11.95 7.96,21.54 18.18,28.31 15.73,10.4 32.16,7.22 47.91,-1.63 23.37,-13.13 42.24,-37.03 56.37,-59.36zm1893.69 -102.1c-3.56,-4.16 -7.27,-8.36 -11.2,-12.16 -32.43,-31.44 -84.45,-38.99 -96.73,15.14 -4.2,18.49 -2.49,37.12 2.93,55.16 5.73,19.04 15.46,35.73 29.74,49.58 10.59,10.26 23.32,19.07 37.98,22.07 12.54,2.58 23.96,0.42 34.84,-6.34 17.2,-10.69 24.03,-27.26 24.63,-47.11 0.8,-26.54 -9.61,-53.4 -22.18,-76.35zm-733.85 375.46c2.66,-9.86 3.51,-20.48 3.52,-30.57 0.02,-13.06 -1.38,-26.06 -4.57,-38.73 -4.07,-16.22 -10.7,-32.99 -21.95,-45.63 -8.38,-9.41 -18.53,-15.38 -31.29,-15.52 -14.73,-0.16 -26.55,5.88 -36.51,16.57 -12.01,12.89 -18.83,29.12 -22.37,46.19 -4.16,20.02 -3.16,40.12 1.82,59.9 4.18,16.63 11.17,33.19 23.15,45.74 9.37,9.8 20.61,15.82 34.3,15.97 5.87,0.06 11.76,-0.74 17.26,-2.85 4.5,-1.73 8.7,-4.5 12.46,-7.64 -0.57,-1.46 -1.07,-2.95 -1.44,-4.41 -2.44,-9.73 -1.41,-19.24 4.98,-27.19 5.32,-6.64 12.57,-10.31 20.64,-11.83zm-358.16 -43.73c-0.88,-5.53 -1.92,-11.09 -3.29,-16.52 -3.97,-15.64 -10.33,-31.55 -21,-43.88 -7.13,-8.26 -16.18,-15 -27.51,-15.01 -14.56,-0.01 -25.89,7.75 -35.05,18.58 -12.2,14.4 -19.22,32.1 -23.04,50.42 -4.22,20.25 -4,40.56 1.09,60.6 3.7,14.61 9.85,29.73 20.49,40.71 8.42,8.69 18.25,13.41 30.4,13.42 18.92,0.01 31.34,-11.95 40.17,-27.74 13.21,-23.61 17.13,-53.89 17.74,-80.58zm-11.58 232.28c-20.67,7.71 -45.62,18.42 -61.14,31.61 -10.68,9.07 -16.73,19.78 -13.16,33.86 1.59,6.27 4.96,11.15 10.48,14.58 5.38,3.34 11.21,5.4 17.57,5.41 15.5,0.01 25.12,-10.14 31.72,-23.17 9.21,-18.14 12.99,-41.32 14.52,-62.28zm-743.39 -3412.33c-3.37,-8.38 -6.91,-16.71 -10.77,-24.86 -10.25,-21.73 -20.46,-43.8 -30.03,-66.11 1.04,3.05 1.28,6.35 0.49,9.82 -1.64,7.21 -7.5,12.73 -13.35,16.79 -15.73,10.92 -33.46,14.68 -52.39,11.95 -19.84,-2.86 -36.61,-12.33 -50.54,-26.66 -19.23,-19.78 -29.73,-43.59 -31.28,-71.14 -1.64,-28.9 6.28,-56.41 20.24,-81.56 15.67,-28.24 37.92,-51.11 64.36,-69.46 21.53,-14.94 45.11,-25.99 70.61,-32.21 23.17,-5.65 47.21,-7.23 70.7,-2.52 21.19,4.26 40.1,13.45 55.21,29.01 17.6,18.11 25.77,40.19 24.93,65.4 -0.71,20.93 -7.39,40.06 -18.05,57.4 18.1,-3.43 36.69,-3.92 54.82,0.23 20.93,4.79 39.43,14.34 54.43,29.78 14.56,14.98 23.47,32.96 27.06,53.54 3.81,21.91 0.13,43.08 -9.1,63.22 -10.59,23.09 -28.22,41.26 -48.9,55.61 -15.97,11.09 -33.55,20.12 -52.52,24.78 -16.01,3.94 -32.42,6.02 -48.88,6.64 -1.56,13.82 -6.02,26.94 -12.58,39.29 -8.57,16.13 -21.42,29.08 -36.34,39.43 -17.58,12.2 -37.24,20.18 -58.83,20.53 -19.71,0.33 -37.1,-5.96 -50.9,-20.16 -8.53,-8.79 -13.51,-19.47 -15.47,-31.54 -2.21,-13.69 1.04,-27.02 7.1,-39.31 7.51,-15.22 20.23,-27.31 34.03,-36.89 16.81,-11.67 35.91,-18.17 55.93,-21.01zm-41.95 -93.66c-6.74,-15.78 -13.16,-31.69 -19.05,-47.64 -8.02,-21.7 -16.72,-48.92 -17.12,-72.22 -0.29,-17 4.44,-32.99 18.91,-43.03 6.71,-4.66 14.36,-7.77 22.66,-7.47 7.71,0.29 14.39,3.15 19.77,8.69 7.39,7.6 10.07,17.85 9.98,28.43 -0.45,11.59 0.4,23.23 2.89,34.56 2.82,12.84 7.65,26.3 12.58,38.91 19.07,-13.5 39.99,-32.42 46.64,-55.4 5.82,-20.15 -1.38,-36.92 -15.62,-51.57 -13.86,-14.27 -30.75,-21.18 -50.6,-21.67 -22.21,-0.54 -42.53,7.38 -60.61,19.92 -17.09,11.87 -31.18,26.68 -41.93,44.49 -9.86,16.35 -15.54,34.03 -15.07,53.23 0.44,18.68 8.1,34.28 21.05,47.61 3.98,4.1 10.26,9.71 16.05,10.89 5.7,1.16 11.66,0.82 17.24,-0.16 4.71,-0.91 9.95,-1.53 14.73,-0.84 5.19,0.74 9.64,3.76 13.23,7.45 1.75,1.8 3.2,3.74 4.28,5.83zm1698.23 169.4c-2.98,-4.11 -5.3,-8.68 -7.06,-13.49 -2.45,-6.69 -3.63,-13.75 -2.75,-20.86 1.71,-13.6 7.57,-25.07 18.79,-33.13 10.84,-7.79 23.27,-10.18 36.37,-7.83 12.7,2.27 23.69,8.06 31.81,18.16 7.91,9.85 11.16,21.15 9.58,33.68 -2.39,18.99 -12.02,35.04 -25.55,48.26 -14.75,14.39 -32.13,24.67 -51.72,31.07 -19.07,6.24 -38.84,7.68 -58.34,2.67l-0.4 -0.1 -0.38 -0.15c-5.24,-2.06 -9.78,-5.17 -12.93,-9.73 -3.66,-4.86 -4.79,-10.53 -4.04,-16.52 1.05,-8.25 5.14,-14.85 12,-19.53 7.07,-4.81 15,-5.98 23.1,-3.68 6.56,1.57 13.05,1.05 19.42,-1.17 4.8,-1.66 8.79,-4.15 12.09,-7.65zm-903.36 -175.07c2.03,39.82 0.13,88.4 -18.32,124.03 -16.08,31.07 -42.47,47.69 -77.09,51.31 -21.14,2.2 -41.85,-1.12 -60.48,-11.51 -18.18,-10.13 -31,-25.01 -38.45,-44.45 -8.16,-21.28 -7.96,-42.47 3.92,-62.21 10.8,-17.96 25.17,-32.64 42.77,-44.04 20.47,-13.26 42.24,-25.1 63.93,-36.23l0.32 -0.15c2.74,-1.22 7.14,-3.04 10.57,-4.82 -1.2,-10.47 -2.02,-20.96 -2.53,-31.29 -4.42,4.72 -9.43,8.89 -15,12.49 -10.82,7 -22.75,10.97 -35.57,12.32 -22.19,2.32 -42.87,-2.63 -61.3,-15.26 -17.97,-12.3 -30.36,-29.73 -38.78,-49.44 -0.65,2.2 -1.34,4.4 -2.08,6.57 -10.23,30.08 -28.57,54.12 -58.72,65.69 -26.85,10.31 -53.63,9.08 -79.93,-2.4 -26.2,-11.43 -60.64,-37.49 -86.27,-61.36 11.72,28.57 25.09,57.63 38.84,84.87 3.61,7.16 2.92,14.73 -1.45,21.37 -4.36,6.61 -11.12,10.91 -18.4,13.71 -8.14,3.12 -16.62,4.3 -25.28,3.31 -5.08,-0.58 -9.96,-2.01 -14.17,-4.6l-1.09 5.41 -8.64 -16.02c-39.06,-72.42 -65.1,-151.46 -82.34,-231.73 -1.59,-7.4 0.15,-14.29 4.59,-20.41 4.66,-6.41 11.19,-10.75 18.53,-13.57 8.28,-3.18 17.05,-4.59 25.85,-3.03 8.88,1.56 16.09,6.2 21.65,13.26 3.46,4.39 5.26,10.16 6.23,15.59 1.05,5.88 1.88,11.79 2.58,17.72 0.16,1.38 0.38,2.79 0.62,4.18 13.58,-33.65 40.16,-69.23 68.82,-83.86 7.5,-3.83 15.6,-4.96 23.9,-3.74 8.21,1.2 15.37,4.72 20.54,11.28 5.12,6.48 6.26,13.98 3.03,21.6 -3.21,7.57 -9.65,13.16 -16.78,17.4 -11.04,6.04 -19.33,16.13 -25.63,26.85 -7.7,13.12 -12.83,27.48 -16.09,42.29 6.62,9.64 13.52,19.09 20.77,28.28 15.66,19.85 35.28,41.45 57.06,54.71 12.66,7.7 28.31,13.82 42.97,8.19 17.98,-6.9 27.28,-23.46 32.38,-41.18 7.79,-27.06 7.02,-58.37 3.9,-86.1 -1.08,-9.59 3.18,-17.23 12.28,-20.71 4.76,-1.84 9.78,-2.17 14.75,-1.37 0.62,-22.91 2.48,-45.85 5.05,-68.6 0.86,-7.64 4.21,-14.43 9.16,-20.26 5.41,-6.35 12.33,-10.21 20.64,-11.08 9.72,-1.02 18.8,1.33 26.94,6.75 7.76,5.15 13.78,11.91 17.13,20.65 3.89,10.14 4.72,20.72 3.31,31.47 -1.9,14.55 -4.83,29.27 -7.73,43.66 -1.91,17.38 -2.24,34.93 -1.17,52.39 1,16.37 3.95,32.72 9.84,48.06 3.8,9.94 9.26,20.21 17.25,27.45 5.65,5.11 12.02,8.22 19.74,7.41 26.64,-2.79 38,-58.54 41.62,-78.45 2.28,-12.5 3.44,-25.15 3.76,-37.84 0.4,-16.09 0.06,-32.32 -0.44,-48.2 -0.66,-10.42 -1.08,-20.85 -1.2,-31.29 -0.11,-9.23 0.23,-18.72 1.79,-27.7 1.02,-7.49 3.95,-14.24 8.67,-20.13 5.15,-6.4 12.06,-10.06 20.21,-10.91 9.75,-1.02 18.89,1.36 27.12,6.68 7.86,5.08 14.06,11.87 17.44,20.67 3.61,9.42 4.23,19.58 3.14,29.53 -1.66,15.2 -4.41,30.65 -7.11,45.69 -1.44,8.06 -1.75,17.37 -2.06,25.55 -0.59,15.49 -0.66,31.04 -0.6,46.54 0.13,36.77 1.82,73.56 4.72,110.22 21.51,-14.01 37.94,-34.09 50.71,-56.4 17.67,-30.87 28.16,-65.1 33.63,-100.12 0.75,-4.8 2.95,-8.81 6.56,-11.78 0.47,-1.54 0.97,-3.08 1.49,-4.61 9.82,-29.04 25.81,-54.37 48.98,-74.5 21.22,-18.42 45.73,-30.78 73.76,-34.15 27.02,-3.25 51.94,3.42 73.97,19.38 16.57,12.01 29.57,27.37 36.34,46.85 6.36,18.31 6.51,36.76 0.3,55.13 -3.99,11.83 -9.99,22.88 -18.54,32.05 -7.62,8.15 -16.79,14.32 -27.76,16.83 -10.83,2.47 -21.04,0.11 -30.02,-6.39 -8.36,-6.06 -13.87,-14.19 -16.38,-24.21 -2.38,-9.49 -2.11,-18.97 1.03,-28.26 2.85,-8.46 7.87,-15.63 15.73,-19.87 6.81,-3.85 13.9,-3.9 20.64,-1.22 0.61,-0.97 1.12,-2 1.48,-3.09 1.08,-3.16 1.04,-6.19 -0.07,-9.33 -1.27,-3.64 -3.78,-6.36 -6.87,-8.59 -10.87,-7.88 -22.97,-8.31 -35.61,-4.56 -16.56,4.92 -30.69,15.49 -42.5,27.85 -14.05,14.71 -24.09,31.96 -30.6,51.23 -6.1,18.03 -8.77,37.49 -4.03,56.18 4.33,17.06 14.01,30.42 28.23,40.72 21.01,15.23 44.06,21.69 69.8,17.05 28.92,-5.22 54.52,-22.21 75.87,-41.72 6.18,-5.66 13.85,-7.34 21.38,-3.29l0.4 0.21 1.88 1.36c0.59,0.43 1.17,0.89 1.71,1.36 5.2,-19.66 11.1,-39.11 17.65,-58.36 13.5,-39.73 29.95,-78.44 49.51,-115.58 3.62,-6.86 8.97,-12.17 15.7,-15.79 7.3,-4.11 15.22,-5.22 23.29,-2.94 9.48,2.68 17,8.34 22.55,16.45 5.29,7.74 8.42,16.46 8.36,25.9 -0.05,9.06 -2.29,17.74 -6.14,25.91 -5.02,10.65 -11.06,21.18 -16.98,31.36l-0.15 0.25 -0.17 0.25c-2.66,3.74 -5.04,8.15 -7.23,12.19 -3.76,6.91 -7.17,14.55 -10.41,21.99l76.38 21.53c11.07,-32.88 25.61,-64.92 41.52,-95.66 3.57,-6.88 9.02,-12.15 15.78,-15.87 7.34,-4.04 15.22,-5.18 23.32,-2.89 9.49,2.68 17.13,8.33 22.64,16.5 5.22,7.74 8.32,16.46 8.27,25.85 -0.05,9.06 -2.29,17.75 -6.14,25.91 -5.03,10.68 -11.1,21.21 -17.08,31.37l-0.22 0.34c-2.62,3.89 -5,8.25 -7.25,12.36 -8.71,15.84 -15.4,32.7 -20.59,50.01 -4.81,16.02 -8.11,32.93 -8.2,49.7 -0.06,10.83 1.21,22.88 6.18,32.66 3.48,6.82 8.42,11.97 15.89,14.07 14.59,4.11 29.62,-6.66 39.75,-15.92 20.42,-18.64 37.78,-45.39 51.5,-69.23 3.73,-7.31 10.51,-10.7 18.63,-10.41l0.79 0.03 3.34 0.94c2.63,0.74 5.06,1.89 7.27,3.36 11.43,-19.62 26.17,-36.65 44.49,-50.39 23.61,-17.7 50.06,-28.21 79.61,-29.36 29.44,-1.16 56.05,7.89 79.76,25.3 25.11,18.44 42.68,42.35 50.14,72.71 7.66,31.2 2.93,62.16 -9.35,91.54 -9.8,23.4 -22.89,45.78 -41.76,63.03 -37.33,34.15 -79.85,48.91 -130.33,38.47 -15.21,-3.15 -28.82,-11.28 -41.21,-20.38 -25.73,-18.9 -43.4,-43.54 -51.32,-74.53 -2.68,-10.48 -4.09,-21.07 -4.26,-31.7 -11.14,13.98 -23.74,26.86 -38.01,37.56 -24.09,18.07 -51.75,28.15 -81.55,19.74 -21.68,-6.1 -38.86,-18.56 -51.28,-37.33 -13.25,-20.02 -18.28,-43.6 -18.15,-67.36 0.08,-14.09 2.08,-28.45 4.85,-42.35l-81.69 -23.02c-10.35,30.93 -17.46,63.44 -22.95,95.51 -1.36,7.93 -6.68,13.35 -14.11,16.08 -7.59,2.79 -15.59,2.4 -23.26,0.24 -8.68,-2.45 -16.4,-6.76 -22.87,-13.04 -6.02,-5.83 -10.47,-13.29 -8.91,-21.96 0.73,-4.02 1.49,-8.04 2.27,-12.05 -25.45,21.3 -54.8,37.4 -88.21,42.48 -38.02,5.79 -72.76,-4.55 -103.75,-27 -17.9,-12.97 -32.41,-29.11 -43.37,-48.29 -0.58,-1.02 -1.16,-2.03 -1.71,-3.06 -7.65,15.53 -16.77,30.36 -26.74,44.47 -18.4,26.04 -41.84,46.98 -69.19,63.17zm-726.04 -11.98l20.83 44.12c9.51,20.14 17.53,41.02 23.6,62.45 14.71,-0.3 30.34,-0.98 44.62,-3.44 11.63,-2 22.25,-6.87 31.91,-13.57 10.32,-7.17 19.65,-16.56 23.3,-28.89 3.21,-10.78 2.95,-21.36 -0.68,-31.99 -3.66,-10.68 -9.37,-20.21 -17.25,-28.3 -9.81,-10.1 -21.73,-16.57 -35.37,-20.03 -14.94,-3.8 -30.13,-3.61 -45.18,-0.49 -16.34,3.39 -31.43,10.17 -45.12,19.67l-0.67 0.46zm-13.19 161.67c-7.57,0.07 -15.38,0.44 -22.66,1.65 -5.76,0.96 -11.54,2.79 -16.37,6.13 -5.06,3.52 -9.95,8.37 -10.64,14.81 -0.61,5.65 1.32,10.19 5.25,14.23 3.92,4.04 8.67,6.19 14.22,6.89 6.05,0.75 11.33,-0.97 16.31,-4.42 5.82,-4.04 9.7,-9.33 11.59,-16.18 2,-7.2 2.46,-15.37 2.29,-23.11zm1626.57 -266.09c-12.03,-8.83 -25.62,-10.68 -40.11,-7.72 -17.82,3.62 -33.39,13.09 -46.79,25.14 -15.65,14.08 -27.21,31.28 -35.32,50.68 -6.73,16.08 -11.24,33.93 -9.12,51.44 1.64,13.54 7.1,25.1 18.2,33.26 40.15,29.5 82.34,4.72 106.96,-31.61 16.35,-24.14 25.77,-60.71 22.22,-89.84 -1.51,-12.43 -5.66,-23.7 -16.05,-31.34zm-955.23 147.35c-19.43,9.9 -42.74,23.27 -56.36,38.06 -9.58,10.41 -13.95,21.82 -8.73,35.44 2.16,5.65 5.47,11.23 10.75,14.48 4.56,2.81 9.42,3.87 14.74,3.32 16.01,-1.67 25.21,-13.58 31.12,-27.62 8.1,-19.21 9.52,-42.44 8.48,-63.68zm-532.74 751.1c-22.2,5.73 -38.7,-19.57 -13.7,-34.16 29.46,-20.14 42.69,-43.71 34.65,-66.1 -11.18,-31.11 -72.17,-43.45 -21.17,-63.04 55.9,-21.48 192.12,-17.75 246.52,25.05 20.43,16.06 24.23,29.15 16.32,52.46 -12.51,36.9 -48.5,94.74 -91.32,134.98 -29.41,27.64 -71.5,65.35 -96.24,58.04 -25.88,-7.64 10.62,-36.99 -0.28,-67.3 -8.07,-22.45 -26.3,-39.77 -74.78,-39.91zm310.12 -220.69c-22.89,1.2 -34.02,-26.88 -6.61,-36.21 32.88,-13.86 50.54,-34.31 47.12,-57.86 -4.75,-32.72 -62.06,-56.97 -8.17,-66.01 59.06,-9.91 191.79,20.91 236.57,73.68 16.82,19.82 17.94,33.4 5.54,54.66 -19.63,33.67 -66.42,83.18 -116.4,114.07 -34.33,21.22 -83.09,49.79 -105.88,37.69 -23.83,-12.65 17.78,-34.12 13.15,-66.01 -3.43,-23.61 -17.85,-44.22 -65.33,-54.02zm390.77 -36.6c-21.56,-7.79 -20.9,-37.99 7.97,-35.94 35.69,-0.01 59.9,-12 65.89,-35.02 8.33,-32 -35.07,-76.6 18.1,-63.99 58.27,13.8 168.63,93.73 189.41,159.75 7.8,24.8 3.56,37.75 -16.12,52.53 -31.16,23.41 -93.5,50.87 -151.56,59.92 -39.88,6.22 -95.9,13.62 -112.2,-6.37 -17.06,-20.92 29.63,-24.55 37.74,-55.74 6.01,-23.08 0.72,-47.68 -39.23,-75.13zm354.77 155.28c-16.62,-15.78 -3.92,-43.18 21.71,-29.73 32.69,14.3 59.69,13.02 74.4,-5.67 20.46,-25.99 -1.42,-84.23 42.24,-51.37 47.85,36 116.9,153.47 109.48,222.28 -2.8,25.85 -11.87,36.01 -35.82,41.66 -37.93,8.95 -106.05,9.11 -162.87,-5.87 -39.02,-10.28 -93.32,-25.97 -100.24,-50.82 -7.24,-26 37,-10.62 56.92,-35.92 14.76,-18.75 19.77,-43.4 -5.82,-84.57zm358.46 93.35c146.21,134.87 256.58,308.01 315.26,503.52 -27.3,-8.6 -55.97,-13.22 -85.55,-13.22 -32.48,0 -63.83,5.54 -93.49,15.83 -50.52,-141.33 -133.45,-267.24 -239.78,-368.84 39.55,-42.17 74.34,-88.15 103.57,-137.3zm-1421.55 136.83c-107.34,102.42 -190.86,229.6 -241.35,372.38 -32.11,-12.26 -66.35,-18.9 -101.91,-18.9 -25.84,0 -50.98,3.5 -75.14,10.11 58.98,-194.5 169.21,-366.72 314.94,-500.97 29.19,49.18 63.94,95.18 103.46,137.38zm-201.72 1161.48c154.13,319.99 481.51,540.83 860.46,540.83 377.35,0 703.5,-218.98 858.44,-536.78 41.02,21.46 86.36,33.39 134.07,33.39 13.56,0 26.92,-0.99 40.06,-2.85 -173.24,398.49 -570.33,677.2 -1032.57,677.2 -461.75,0 -858.5,-278.12 -1032.03,-675.96 9.89,1.06 19.9,1.62 30.03,1.62 50.62,0 98.6,-13.44 141.55,-37.44zm-771.16 -63.45c-91.39,0 -163.61,-19.69 -216.23,-59.3 -52.37,-39.38 -81.51,-89.6 -87.21,-150.67 -2.75,-29.43 -1.61,-56.86 3.4,-82.3 5.01,-25.44 15.6,-50.45 31.79,-74.79 16.4,-24.55 39.02,-49.12 68.56,-73.9 29.51,-25.01 67.44,-51.33 113.98,-79.43 40.86,-24.56 75.42,-47.35 103.52,-67.71 28.08,-20.57 50.56,-39.38 67.45,-56.2 16.9,-16.81 28.56,-32.74 35.02,-47.57 6.7,-14.83 9.18,-30.31 7.66,-46.46 -1.88,-20.14 -11.57,-37.39 -28.53,-51.11 -17,-13.95 -40.71,-20.8 -70.95,-20.8 -37.84,0 -71.42,8.63 -100.97,25.89 -29.52,17.48 -54.77,36.29 -75.96,56.42 -24.31,23.9 -45.55,50.9 -63.96,81.21l-142.59 -86.29c25.89,-41.59 56.54,-79.21 92.17,-112.84 15.29,-14.15 32.93,-27.87 52.23,-41.15 19.56,-13.06 40.82,-25.01 63.61,-35.63 23,-10.62 48.28,-19.25 75.82,-25.89 27.53,-6.64 56.97,-10.17 88.59,-10.17 77.53,0 141.18,19.24 190.93,57.75 49.74,38.49 77.86,90.05 83.91,154.87 6.12,65.71 -13.51,124.79 -58.67,177.45 -45.19,52.44 -115.17,108.64 -209.94,168.83 -19.15,12.39 -38.72,25.23 -58.78,37.83 -20.03,12.84 -37.95,26.11 -53.74,39.82 -15.78,13.95 -28.48,28.77 -38.09,44.48 -9.61,15.71 -13.58,32.52 -11.93,50.22 2.15,23.01 13.36,41.82 33.71,57.09 20.34,15.04 53.11,22.57 98.12,22.57 47.76,0 95.16,-6.42 142.16,-19.69 46.98,-13.27 91.04,-30.97 131.66,-53.1 40.84,-22.35 78.12,-48.24 111.81,-77.89 66.68,-58.67 85.9,-100.25 138.82,-161.73 25.51,-29.65 52.98,-55.76 82.25,-77.66 29.46,-22.12 59.53,-39.61 90.37,-52.65 31.28,-12.84 62.45,-19.48 93.15,-19.48 39.82,0 74.12,8.19 102.83,24.12 28.93,15.93 55.63,42.48 80.32,79.66l-118.72 70.8c-7.1,-7.96 -15.72,-14.38 -25.9,-19.47 -10.16,-4.87 -21.99,-7.31 -35.88,-7.31 -23.85,0 -50.37,10.18 -79.36,30.54 -28.78,20.36 -55.14,44.91 -79.47,73.9 -34.05,39.88 -86.97,115.52 -82.45,169.26 2.28,27.21 15.24,40.71 38.68,40.71 15.75,0 34.02,-7.3 54.58,-21.91 20.74,-14.83 42.33,-34.29 64.94,-59.07 22.2,-24.56 43.85,-53.33 64.55,-86.08 20.67,-32.96 39.35,-67.48 55.6,-103.77l134.81 64.17c-3.79,11.72 -7.95,23.89 -12.67,36.95 -4.07,13.27 -7.72,26.55 -10.59,39.38 -3.02,13.5 -5.28,26.11 -7.22,37.62 -1.5,11.72 -1.73,21.46 -1.08,29.21 1.71,20.36 8.21,36.06 19.73,47.35 11.32,11.28 25.66,16.58 42.63,16.15 31.54,0 68.63,-20.14 110.85,-60.84 42.42,-40.71 87.53,-101.34 135.51,-182.1l106.05 97.13c-27.28,43.15 -54.66,82.75 -82.55,118.59 -28.11,35.84 -57.64,67.04 -88.63,93.38 -31.22,25.89 -64.17,46.02 -98.85,60.4 -34.9,14.16 -73.09,21.25 -114.36,21.25 -45.01,0 -79.79,-11.51 -104.36,-34.95 -24.73,-22.8 -43.49,-55.98 -56.44,-99.12 -33.86,38.93 -70.21,70.35 -108.63,94.69 -38.01,24.12 -80.13,36.29 -125.76,36.29 -45.01,0 -81.95,-12.61 -110.8,-37.61 -22.86,-19.68 -37.88,-46.92 -45.2,-82.02 -17.97,12.08 -36.74,23.49 -56.32,34.22 -48.92,27.22 -102.76,48.68 -161.51,64.6 -58.74,15.94 -121.23,23.9 -187.45,23.9zm3202.92 0c-45.01,0 -79.78,-11.51 -104.36,-34.95 -24.72,-22.8 -43.48,-55.98 -56.43,-99.12 -33.87,38.93 -70.21,70.35 -108.63,94.69 -38.01,24.12 -80.13,36.29 -125.76,36.29 -45.01,0 -81.95,-12.61 -110.8,-37.61 -18.59,-16.01 -32,-37.02 -40.3,-63.18 -41.01,29.36 -84.58,52.79 -130.7,70.26 -27.67,10.84 -56.96,19.25 -87.62,25.67 -30.43,6.19 -61.87,9.28 -93.58,9.28 -39.19,0 -72.94,-4.2 -101.49,-12.61 -28.32,-8.41 -52.26,-19.91 -71.85,-34.74 -19.57,-14.6 -34.47,-31.64 -44.48,-51.11 -10,-19.47 -16.16,-40.26 -18.22,-62.17 -2.94,-31.2 3.63,-60.41 19.47,-87.85 15.84,-27.43 40.31,-54.87 73.2,-82.08 32.28,-26.33 58.25,-47.58 77.96,-63.73 19.92,-16.38 29.17,-32.08 27.68,-47.79 -1.76,-18.58 -14.29,-27.87 -37.38,-27.87 -18.66,0 -39.64,5.09 -62.94,15.26 -23.06,10.18 -46.28,23.67 -69.66,40.5 -23.14,16.81 -45.34,36.06 -66.63,57.75 -21.04,21.68 -39.05,43.36 -53.76,65.48l-118.52 -96.68c23.73,-32.74 50.76,-62.84 81.05,-90.27 30.08,-27.44 61.9,-51.1 95.47,-71.02 33.34,-19.91 68.97,-35.4 106.63,-46.68 37.65,-11.29 76.78,-16.82 117.14,-16.82 56.21,0 99.93,13.5 131.64,40.5 31.7,26.99 49.51,59.95 53.19,98.9 3.34,35.4 -2.72,67.71 -17.9,97.14 -15.19,29.42 -44.2,60.61 -87.23,94.03 -27.79,21.91 -49.86,40.27 -65.48,55.09 -15.65,14.6 -22.98,28.32 -21.82,40.71 0.95,9.96 6.18,18.58 15.76,26.1 9.78,7.3 26.44,10.84 50.71,10.84 18.66,0 37.36,-2 56.07,-6.42 18.73,-4.2 37.1,-9.73 55.16,-16.15 42.4,-15.27 83.89,-40.27 124.43,-75.45 34.46,-29.94 69.05,-69.04 104.18,-117.46l1.2 -2.24c18.13,-33.63 40.16,-65.28 65.48,-94.7 25.51,-29.65 52.99,-55.76 82.26,-77.66 29.46,-22.12 59.52,-39.61 90.37,-52.65 31.28,-12.84 62.45,-19.48 93.15,-19.48 39.82,0 74.12,8.19 102.83,24.12 28.92,15.93 55.63,42.48 80.31,79.66l-118.71 70.8c-7.1,-7.96 -15.72,-14.38 -25.91,-19.47 -10.15,-4.87 -21.98,-7.31 -35.87,-7.31 -23.85,0 -50.37,10.18 -79.36,30.54 -28.79,20.36 -55.14,44.91 -79.47,73.9 -26.38,30.91 -85.83,129.02 -82.45,169.26 2.28,27.21 15.23,40.71 38.67,40.71 15.76,0 34.03,-7.3 54.58,-21.91 20.74,-14.83 42.34,-34.29 64.95,-59.07 22.2,-24.56 43.85,-53.33 64.55,-86.08 20.67,-32.96 39.34,-67.48 55.59,-103.77l134.81 64.17c-3.78,11.72 -7.95,23.89 -12.66,36.95 -4.07,13.27 -7.72,26.55 -10.59,39.38 -3.02,13.5 -5.28,26.11 -7.22,37.62 -1.5,11.72 -1.73,21.46 -1.08,29.21 1.71,20.36 8.21,36.06 19.73,47.35 11.32,11.28 25.66,16.58 42.63,16.15 31.53,0 68.62,-20.14 110.85,-60.84 42.42,-40.71 87.53,-101.34 135.51,-182.1l106.05 97.13c-27.28,43.15 -54.66,82.75 -82.56,118.59 -28.11,35.84 -57.63,67.04 -88.62,93.38 -31.22,25.89 -64.17,46.02 -98.85,60.4 -34.9,14.16 -73.1,21.25 -114.37,21.25zm-1481.08 -320.16l-318.58 0 35.66 -126.34 320.86 0 -37.94 126.34zm-84.34 -2351.94c622.41,0 1185.91,252.29 1593.79,660.17 407.89,407.89 660.17,971.38 660.17,1593.79 0,622.41 -252.29,1185.91 -660.17,1593.79 -407.89,407.89 -971.38,660.17 -1593.79,660.17 -622.41,0 -1185.91,-252.29 -1593.79,-660.17 -407.89,-407.89 -660.17,-971.38 -660.17,-1593.79 0,-622.41 252.29,-1185.91 660.17,-1593.79 407.89,-407.89 971.38,-660.17 1593.79,-660.17zm1558.88 695.09c-398.95,-398.95 -950.1,-645.7 -1558.88,-645.7 -608.78,0 -1159.93,246.75 -1558.88,645.7 -398.95,398.95 -645.7,950.1 -645.7,1558.88 0,608.78 246.75,1159.93 645.7,1558.88 398.95,398.95 950.1,645.7 1558.88,645.7 608.78,0 1159.93,-246.75 1558.88,-645.7 398.95,-398.95 645.7,-950.1 645.7,-1558.88 0,-608.78 -246.75,-1159.93 -645.7,-1558.88zm-1558.88 -801.03c1303.34,0 2359.91,1056.57 2359.91,2359.91 0,1303.34 -1056.57,2359.91 -2359.91,2359.91 -1303.34,0 -2359.91,-1056.57 -2359.91,-2359.91 0,-1303.34 1056.57,-2359.91 2359.91,-2359.91z"/>
 </g>
</svg>
